<svg width="14" height="14" viewBox="0 0 14 14" fill="none" xmlns="http://www.w3.org/2000/svg">
<path d="M13.4057 0H0.594286C0.268571 0 0 0.268571 0 0.594286V5.35143C0 5.67714 0.268571 5.94571 0.594286 5.94571C0.92 5.94571 1.18857 5.67714 1.18857 5.35143V1.16H12.8114V5.32C12.8114 5.64571 13.08 5.91429 13.4057 5.91429C13.7314 5.91429 14 5.67714 14 5.34857V0.594286C14 0.268571 13.7314 0 13.4057 0Z" fill="#DFC184"/>
<path d="M11.3543 2.61704C11.3257 2.3199 11.0857 2.11133 10.7886 2.11133H3.21145C2.94288 2.11133 2.67717 2.3199 2.64574 2.61704L1.30859 13.317C1.30859 13.8913 1.72574 13.9713 1.90288 13.9713H12.1429C12.1457 13.9713 12.1572 13.9713 12.1572 13.9713C12.6829 13.9713 12.7372 13.4056 12.6915 13.2285L11.3543 2.61704ZM2.55717 12.8113L3.74574 3.27133H10.2857L11.4743 12.8113H2.55717Z" fill="#DFC184"/>
<path d="M7.00009 7.57988C6.67723 7.57988 6.41724 7.31703 6.41724 6.99703C6.41724 6.67417 6.68009 6.41417 7.00009 6.41417C7.16295 6.41417 7.31438 6.47988 7.42581 6.59703C7.59438 6.77703 7.88009 6.7856 8.06009 6.61703C8.24009 6.44845 8.24866 6.16274 8.08009 5.98274C7.90581 5.79703 7.68866 5.66274 7.45152 5.58845V5.32845C7.45152 5.07988 7.25152 4.87988 7.00295 4.87988C6.75438 4.87988 6.55438 5.07988 6.55438 5.32845V5.58845C5.95723 5.77988 5.52295 6.33988 5.52295 6.99703C5.52295 7.81131 6.18581 8.47703 7.00295 8.47703C7.32581 8.47703 7.58581 8.73988 7.58581 9.05988C7.58581 9.38274 7.32295 9.64274 7.00295 9.64274C6.84009 9.64274 6.68866 9.57703 6.57723 9.45988C6.40866 9.27988 6.12295 9.27131 5.94295 9.43988C5.76295 9.60845 5.75438 9.89417 5.92295 10.0742C6.09723 10.2599 6.31438 10.3942 6.55152 10.4685V10.7285C6.55152 10.977 6.75152 11.177 7.00009 11.177C7.24866 11.177 7.44866 10.977 7.44866 10.7285V10.4685C8.04581 10.277 8.48009 9.71703 8.48009 9.05988C8.48009 8.24274 7.81438 7.57988 7.00009 7.57988Z" fill="#DFC184"/>
</svg>
