<svg width="16" height="12" viewBox="0 0 16 12" fill="none" xmlns="http://www.w3.org/2000/svg">
<path d="M0 8.68053C0 10.6465 3.31493 11.9834 7.99697 11.9834C12.6911 11.9834 16 10.6465 16 8.68053C16 7.7913 15.3164 7.02306 14.1248 6.44839C15.1229 6.23667 15.7096 5.54102 15.7096 4.51871C15.7096 3.33308 14.9172 2.59508 13.6106 2.52854C13.5622 1.01021 11.318 0 7.99697 0C4.64575 0 2.38336 1.0344 2.38336 2.58299V3.86541C2.38336 4.67599 2.5225 5.42609 2.77656 6.09754C1.02231 6.67826 0 7.58563 0 8.68053ZM7.99697 4.04688C5.42609 4.04688 3.50246 3.39962 3.50246 2.58299C3.50246 1.76635 5.42609 1.11909 7.99697 1.11909C10.5739 1.11909 12.4975 1.76635 12.4975 2.58299C12.4975 3.39962 10.5679 4.04688 7.99697 4.04688ZM13.6166 3.86541V3.62344C14.2518 3.67788 14.6147 3.99849 14.6147 4.51871C14.6147 5.08128 14.1792 5.42609 13.4291 5.42609C13.5501 4.93611 13.6166 4.41588 13.6166 3.86541ZM7.99697 5.16597C9.9327 5.16597 11.5055 4.82117 12.4854 4.22836C12.3403 6.62382 10.7433 8.22079 8.28734 8.22079H7.70662C5.24461 8.22079 3.65974 6.62987 3.51456 4.22836C4.49452 4.82117 6.0673 5.16597 7.99697 5.16597ZM1.07675 8.68053C1.07675 8.08771 1.89943 7.50094 3.27259 7.0775C4.17996 8.48696 5.74669 9.33989 7.70662 9.33989H8.28734C10.2533 9.33989 11.814 8.48696 12.7214 7.08355C14.0945 7.50094 14.9233 8.08771 14.9233 8.68053C14.9233 9.82987 11.8563 10.9066 7.99697 10.9066C4.14367 10.9066 1.07675 9.82987 1.07675 8.68053Z" fill="#DFC184"/>
</svg>
