<svg width="15" height="15" viewBox="0 0 15 15" fill="none" xmlns="http://www.w3.org/2000/svg">
<path d="M7.5 15C11.6029 15 15 11.5956 15 7.5C15 3.39706 11.5956 0 7.49265 0C3.39706 0 0 3.39706 0 7.5C0 11.5956 3.40441 15 7.5 15ZM7.5 13.75C4.02941 13.75 1.25735 10.9706 1.25735 7.5C1.25735 4.02941 4.02206 1.25 7.49265 1.25C10.9632 1.25 13.75 4.02941 13.75 7.5C13.75 10.9706 10.9706 13.75 7.5 13.75ZM7.49265 11.6985C7.69118 11.6985 7.83824 11.5588 7.83824 11.3529V10.8382C8.97794 10.7279 9.86765 10.0662 9.86765 8.95588C9.86765 7.95588 9.22059 7.35294 7.94118 7.125L7.83824 7.10294V5.05147C8.36765 5.14706 8.73529 5.46324 8.88235 5.95588C8.95588 6.17647 9.09559 6.31618 9.33088 6.31618C9.58088 6.31618 9.76471 6.13971 9.76471 5.88235C9.76471 5.80882 9.74265 5.73529 9.72794 5.65441C9.53677 4.86029 8.77941 4.31618 7.83824 4.20588V3.69853C7.83824 3.49265 7.69118 3.35294 7.49265 3.35294C7.29412 3.35294 7.14706 3.49265 7.14706 3.69853V4.20588C6.02941 4.33088 5.23529 5.02941 5.23529 6.02941C5.23529 6.96324 5.86765 7.52206 7.09559 7.80882L7.14706 7.82353V10C6.48529 9.90441 6.09559 9.53677 5.97794 9.04412C5.88971 8.79412 5.74265 8.67647 5.52206 8.67647C5.27206 8.67647 5.09559 8.85294 5.09559 9.11029C5.09559 9.19118 5.11029 9.26471 5.13235 9.33823C5.33824 10.1838 6.16176 10.7279 7.14706 10.8235V11.3529C7.14706 11.5588 7.29412 11.6985 7.49265 11.6985ZM7.14706 6.91912L7.09559 6.90441C6.43382 6.71324 6.13971 6.41912 6.13971 5.98529C6.13971 5.53676 6.52206 5.16176 7.14706 5.05147V6.91912ZM7.83824 8L8 8.03677C8.71323 8.23529 8.95588 8.53677 8.95588 9.00735C8.95588 9.52206 8.58823 9.91177 7.83824 10V8Z" fill="#DFC184"/>
</svg>
