<svg width="25" height="25" viewBox="0 0 25 25" fill="none" xmlns="http://www.w3.org/2000/svg">
<path d="M12.0508 24.4922C18.5898 24.4922 24.0039 19.0664 24.0039 12.5391C24.0039 6 18.5781 0.585938 12.0391 0.585938C5.51172 0.585938 0.0976562 6 0.0976562 12.5391C0.0976562 19.0664 5.52344 24.4922 12.0508 24.4922ZM12.0508 22.5C6.51953 22.5 2.10156 18.0703 2.10156 12.5391C2.10156 7.00781 6.50781 2.57812 12.0391 2.57812C17.5703 2.57812 22.0117 7.00781 22.0117 12.5391C22.0117 18.0703 17.582 22.5 12.0508 22.5ZM17.7461 7.88672L18.2383 7.33594C18.4961 7.06641 18.4844 6.71484 18.2617 6.48047L18.1094 6.35156C17.875 6.10547 17.5 6.12891 17.2422 6.375L16.7383 6.86719L17.7461 7.88672ZM8.46484 18.1172H15.4141C16.5391 18.1172 17.2188 17.4492 17.2188 16.1602V10.0547L16.0117 11.2734V16.1016C16.0117 16.6406 15.7422 16.8984 15.4023 16.8984H8.47656C7.97266 16.8984 7.70312 16.6406 7.70312 16.1016V9.38672C7.70312 8.84766 7.97266 8.57812 8.47656 8.57812H13.3867L14.6055 7.35938H8.46484C7.16406 7.35938 6.48438 8.05078 6.48438 9.33984V16.1602C6.48438 17.4492 7.16406 18.1172 8.46484 18.1172ZM10.6797 14.2617L11.8633 13.7695L17.2422 8.39062L16.2227 7.39453L10.8555 12.7734L10.3164 13.8867C10.2109 14.1211 10.457 14.3438 10.6797 14.2617Z" fill="#DFC184"/>
</svg>
