<svg width="16" height="16" viewBox="0 0 16 16" fill="none" xmlns="http://www.w3.org/2000/svg">
<path d="M15.9673 14.5223V12.1913V6.66285V5.95668V5.58725C15.9673 4.89743 15.4213 4.33184 14.7544 4.33184H10.6089C9.94197 4.33184 9.396 4.89743 9.396 5.58725V5.95668V14.5223V14.7446C9.396 15.4344 9.94197 16 10.6089 16H14.7544C15.4213 16 15.9673 15.4344 15.9673 14.7446V14.5223ZM13.2047 15.4736H12.0343C11.8611 15.4736 11.7205 15.3265 11.7205 15.1467C11.7205 14.9669 11.8611 14.8198 12.0343 14.8198H13.2047C13.378 14.8198 13.5186 14.9669 13.5186 15.1467C13.5186 15.3265 13.378 15.4736 13.2047 15.4736ZM14.8656 14.2967C14.859 14.2967 14.8492 14.3 14.8427 14.3H10.5206C10.5141 14.3 10.5043 14.2967 10.4978 14.2967V6.04495C10.5043 6.04495 10.5141 6.04168 10.5206 6.04168H14.8427C14.8492 6.04168 14.8557 6.04495 14.8623 6.04495V14.2967H14.8656ZM3.43931 16H5.49244H8.6604C8.4479 15.6306 8.32366 15.2023 8.32366 14.7446V13.9959H7.15652H1.36657V1.736H10.2526V3.23662C10.3703 3.22027 10.4879 3.20719 10.6089 3.20719H11.6028V1.67716V1.47119V1.28811C11.6028 0.755211 11.2889 0.297507 10.841 0.101349C10.6906 0.0359624 10.5272 0 10.3539 0H5.49571L1.24888 0C1.0756 0 0.912137 0.0359624 0.761749 0.101349C0.313854 0.297507 0 0.755211 0 1.28811V1.52023V13.1394V14.7119C0 15.4246 0.559052 16 1.24561 16H3.43931ZM5.21455 14.6988H6.38496C6.55824 14.6988 6.69882 14.8459 6.69882 15.0257C6.69882 15.2056 6.55824 15.3527 6.38496 15.3527H5.21455C5.04128 15.3527 4.90069 15.2056 4.90069 15.0257C4.90069 14.8459 5.04128 14.6988 5.21455 14.6988Z" fill="#DFC184"/>
</svg>
