<svg width="75" height="75" viewBox="0 0 75 75" fill="none" xmlns="http://www.w3.org/2000/svg">
<path d="M24.5573 40.552C23.6653 36.2064 25.0181 31.7038 28.1568 28.5689C28.5565 28.1624 28.5534 27.5101 28.15 27.1073C27.7466 26.7046 27.0943 26.7021 26.6885 27.1024C23.0618 30.7321 21.5021 35.9414 22.5374 40.9672C22.8487 42.3058 24.7877 41.9043 24.5573 40.5521L24.5573 40.552Z" fill="#9CACB9"/>
<path d="M37.4755 22.6309C35.2405 22.6253 33.0322 23.1152 31.0085 24.0646C30.4896 24.308 30.2654 24.9257 30.5087 25.4453C30.7521 25.9641 31.3698 26.1877 31.8887 25.945C40.4436 21.8149 50.775 28.3789 50.6596 37.893C50.5126 51.6003 32.3426 56.1072 25.8179 44.0629C25.1365 42.8713 23.381 43.7997 23.9844 45.0352C31.538 58.9759 52.5677 53.7561 52.7353 37.8937L52.7359 37.8931C52.7316 33.847 51.1224 29.9678 48.2617 27.1064C45.4004 24.2451 41.5218 22.6354 37.4751 22.631L37.4755 22.6309Z" fill="#9CACB9"/>
<path d="M37.4751 18.3879C32.3037 18.3929 27.3453 20.4498 23.6884 24.1073C20.0316 27.7641 17.9747 32.7223 17.9691 37.8939C19.0414 63.7707 55.913 63.7612 56.9804 37.8939C56.9748 32.7225 54.9185 27.7647 51.2617 24.1079C47.6055 20.4505 42.6471 18.3935 37.4757 18.3879H37.4751ZM37.4751 55.3229C32.854 55.3174 28.4239 53.4797 25.1562 50.2127C21.8886 46.9451 20.0503 42.5148 20.0448 37.8939C21.0028 14.7718 53.9452 14.7781 54.9051 37.8939C54.8989 42.5144 53.06 46.9433 49.7929 50.2097C46.5259 53.4761 42.0963 55.3138 37.4759 55.3193L37.4751 55.3229Z" fill="#9CACB9"/>
<path d="M73.9531 36.4355H68.4684C67.9199 20.1779 54.7806 7.04662 38.5118 6.51371V1.03774C38.5118 0.464514 38.0473 0 37.4741 0C36.9015 0 36.4363 0.464514 36.4363 1.03774V6.52051C20.174 7.06348 7.05532 20.2083 6.52241 36.4803H1.03774C0.464514 36.4803 0 36.9454 0 37.518C0 38.0913 0.464514 38.5558 1.03774 38.5558H6.52352C7.07328 54.8134 20.2113 67.9415 36.4801 68.4776V73.9623C36.4801 74.5355 36.9453 75 37.5179 75C38.0911 75 38.5556 74.5355 38.5556 73.9623V68.464C54.8132 67.9155 67.9445 54.7762 68.4774 38.5074H73.9602C74.5334 38.5074 74.9979 38.0429 74.9979 37.4696C74.9979 36.8964 74.5334 36.4319 73.9602 36.4319L73.9531 36.4355ZM38.5551 66.3874V61.9548C38.5551 61.3816 38.0906 60.917 37.5174 60.917C36.9448 60.917 36.4797 61.3816 36.4797 61.9548V66.3874C21.3563 65.8685 9.15279 53.6701 8.59932 38.5513H13.0357C13.609 38.5513 14.0735 38.0868 14.0735 37.5136C14.0735 36.9404 13.609 36.4759 13.0357 36.4759H8.59821C9.11708 21.3508 21.3174 9.14899 36.4438 8.59395V13.0321C36.4438 13.6053 36.9083 14.0698 37.4815 14.0698C38.0541 14.0698 38.5192 13.6053 38.5192 13.0321V8.59569C53.6443 9.11455 65.8461 21.3166 66.3996 36.4412H61.9546C61.3814 36.4412 60.9169 36.9057 60.9169 37.479C60.9169 38.0522 61.3814 38.5167 61.9546 38.5167H66.3947C65.8684 53.6332 53.6731 65.842 38.5555 66.3876L38.5551 66.3874Z" fill="#9CACB9"/>
<path d="M33.5535 41.618C32.6405 40.5975 31.1215 41.8582 31.9572 42.9448H31.9566C33.2007 44.3094 34.8802 45.1995 36.7081 45.4614V46.7203C36.7081 47.2936 37.1727 47.7581 37.7459 47.7581C38.3192 47.7581 38.7837 47.2936 38.7837 46.7203V45.454V45.4546C39.743 45.2816 40.6505 44.8912 41.435 44.313C42.6457 43.4173 43.3154 42.2375 43.3154 40.999C43.3154 38.8561 41.7915 37.2562 38.7838 36.2376V31.3688C40.5135 31.6819 41.4579 32.6209 41.4994 32.6641C42.4815 33.6259 43.9208 32.2577 43.0004 31.2322C42.9313 31.1581 41.4438 29.6256 38.7839 29.2672V28.0114C38.7839 27.4382 38.3194 26.9736 37.7461 26.9736C37.1729 26.9736 36.7083 27.4382 36.7083 28.0114V29.279C34.403 29.7009 32.5449 31.6017 32.5449 33.7327C32.5449 36.4049 34.9886 37.2853 36.7083 37.7782V43.3512C35.4995 43.1221 34.395 42.5155 33.5537 41.6179L33.5535 41.618ZM41.2397 40.9916C41.2397 41.8805 40.1636 42.9651 38.7837 43.3303V38.4391C40.4354 39.105 41.2397 39.9476 41.2397 40.9922V40.9916ZM34.6203 33.7271C34.6203 32.7239 35.5475 31.7676 36.7081 31.4094V35.6026C35.2744 35.1375 34.6203 34.6667 34.6203 33.7328V33.7271Z" fill="#9CACB9"/>
</svg>
