<svg width="16" height="14" viewBox="0 0 16 14" fill="none" xmlns="http://www.w3.org/2000/svg">
<path d="M15.9037 11.7282L13.5786 8.65236C13.0662 7.97455 12.2995 7.52314 11.4693 7.39446C12.0085 6.62035 12.2978 5.71006 12.2978 4.75068C12.2978 2.13114 10.0945 0 7.38621 0C4.67796 0 2.47464 2.13114 2.47464 4.75068C2.47464 5.66834 2.74577 6.5591 3.25876 7.32661C3.70696 7.99721 4.31921 8.54489 5.03984 8.92424C5.17304 9.44591 5.65881 9.83745 6.23043 9.84975L9.16419 9.9128C9.2404 9.91444 9.28828 9.95432 9.31004 9.97795C9.33181 10.0016 9.36728 10.0522 9.36019 10.1256C9.35058 10.2252 9.26282 10.3023 9.1597 10.3023C9.15867 10.3023 9.15761 10.3023 9.15657 10.3023L5.78612 10.2517C5.60031 10.2489 5.41892 10.1844 5.2754 10.0702L2.29092 7.69566C1.7212 7.24231 0.880571 7.29577 0.377068 7.81729C0.120907 8.08263 -0.0126636 8.42854 0.000946343 8.79134C0.0145563 9.15414 0.17375 9.48978 0.449211 9.73642L4.2433 13.1341C4.71263 13.5543 5.32308 13.7971 5.96229 13.8178L11.5972 13.9997C11.6029 13.9999 11.6085 14 11.6142 14C11.8821 14 12.1037 13.7943 12.1127 13.5333C12.1219 13.2668 11.906 13.0436 11.6305 13.0347L5.99563 12.8528C5.59625 12.8398 5.21477 12.6881 4.92154 12.4255L1.12748 9.02794C1.04832 8.95707 1.00256 8.8606 0.998635 8.75632C0.994708 8.65207 1.03311 8.55265 1.10675 8.4764C1.25143 8.32654 1.49305 8.31118 1.65677 8.44141L4.64125 10.816C4.95868 11.0685 5.35979 11.211 5.77065 11.2172L9.1411 11.2678C9.14732 11.2679 9.15345 11.2679 9.15967 11.2679C9.77408 11.2679 10.297 10.8088 10.3542 10.2152C10.385 9.89578 10.2761 9.5752 10.0554 9.33567C9.83478 9.09614 9.51802 8.95465 9.18639 8.94751L6.25262 8.88445C6.12018 8.88159 6.01017 8.77917 6.00225 8.65126C5.99653 8.55908 6.04245 8.49661 6.0703 8.46758C6.09815 8.43855 6.15915 8.38959 6.25459 8.38824L10.941 8.32235C10.965 8.32203 10.9889 8.3221 11.0126 8.32239C11.6963 8.33233 12.3543 8.66874 12.7728 9.22231L15.0979 12.2981C15.2606 12.5134 15.5729 12.5603 15.7955 12.4029C16.018 12.2455 16.0665 11.9434 15.9037 11.7282ZM6.24004 7.42278C5.8991 7.42754 5.57053 7.56897 5.33859 7.81069C5.30528 7.84542 5.27453 7.88205 5.24588 7.92006C4.7885 7.6308 4.39691 7.251 4.09712 6.80249C3.68875 6.1915 3.47292 5.48202 3.47292 4.75075C3.47292 2.66363 5.22841 0.96565 7.38621 0.96565C9.54401 0.96565 11.2995 2.66363 11.2995 4.75075C11.2995 5.7378 10.9154 6.65977 10.214 7.36694L7.71887 7.40202V7.22667C8.36716 7.08048 8.8517 6.51732 8.8517 5.8464C8.8517 5.17544 8.36716 4.61228 7.71887 4.46609V2.95147C7.99433 3.07388 8.18617 3.34308 8.18617 3.65494C8.18617 3.83267 8.33515 3.9768 8.51893 3.9768C8.70272 3.9768 8.8517 3.83267 8.8517 3.65494C8.8517 2.98401 8.36716 2.42085 7.71887 2.27466V2.05155C7.71887 1.87382 7.5699 1.72969 7.38611 1.72969C7.20233 1.72969 7.05335 1.87382 7.05335 2.05155V2.27466C6.40506 2.42085 5.92053 2.98401 5.92053 3.65494C5.92053 4.32586 6.40506 4.88899 7.05335 5.03521V6.54986C6.77789 6.42749 6.58605 6.15828 6.58605 5.8464C6.58605 5.66867 6.43707 5.52454 6.25329 5.52454C6.0695 5.52454 5.92053 5.66867 5.92053 5.8464C5.92053 6.51732 6.40506 7.08045 7.05335 7.22667V7.41136L6.24004 7.42278ZM7.05335 4.35837C6.77789 4.23599 6.58605 3.96679 6.58605 3.6549C6.58605 3.34305 6.77789 3.07385 7.05335 2.95144V4.35837ZM7.71887 5.14287C7.99433 5.26528 8.18617 5.53448 8.18617 5.84637C8.18617 6.15825 7.99433 6.42746 7.71887 6.54983V5.14287Z" fill="#DFC184"/>
</svg>
