<svg width="14" height="17" viewBox="0 0 14 17" fill="none" xmlns="http://www.w3.org/2000/svg">
<path d="M12.4644 0H0.576226C0.257977 0 0 0.258034 0 0.576226V12.8921C0 13.045 0.0607307 13.1915 0.168798 13.2997L3.70125 16.8313C3.80937 16.9393 3.95591 16.9999 4.10868 16.9999H12.4644C12.7826 16.9999 13.0406 16.7419 13.0406 16.4237V0.576226C13.0407 0.258034 12.7826 0 12.4644 0ZM1.96771 13.4684H3.53245V15.0328L1.96771 13.4684ZM11.8882 15.8475H4.68496V12.8921C4.68496 12.5739 4.42693 12.3159 4.10873 12.3159H1.15251V1.15251H11.8882V15.8475H11.8882Z" fill="#DFC184"/>
<path d="M2.55761 4.12407H7.51091C7.82916 4.12407 8.08708 3.8661 8.08708 3.54791C8.08708 3.22966 7.8291 2.97168 7.51091 2.97168H2.55761C2.23936 2.97168 1.98145 3.22966 1.98145 3.54791C1.98139 3.8661 2.23936 4.12407 2.55761 4.12407Z" fill="#DFC184"/>
<path d="M9.49224 4.12407H10.483C10.8012 4.12407 11.0592 3.8661 11.0592 3.54791C11.0592 3.22966 10.8012 2.97168 10.483 2.97168H9.49224C9.17399 2.97168 8.91602 3.22966 8.91602 3.54791C8.91596 3.8661 9.17399 4.12407 9.49224 4.12407Z" fill="#DFC184"/>
<path d="M2.55761 7.09532H7.51091C7.82916 7.09532 8.08708 6.83729 8.08708 6.5191C8.08708 6.20079 7.8291 5.94287 7.51091 5.94287H2.55761C2.23936 5.94287 1.98145 6.20085 1.98145 6.5191C1.98139 6.83729 2.23936 7.09532 2.55761 7.09532Z" fill="#DFC184"/>
<path d="M9.49224 7.09532H10.483C10.8012 7.09532 11.0592 6.83729 11.0592 6.5191C11.0592 6.20079 10.8012 5.94287 10.483 5.94287H9.49224C9.17399 5.94287 8.91602 6.20085 8.91602 6.5191C8.91596 6.83729 9.17399 7.09532 9.49224 7.09532Z" fill="#DFC184"/>
<path d="M2.55761 10.0665H7.51091C7.82916 10.0665 8.08708 9.80848 8.08708 9.49029C8.08708 9.1721 7.8291 8.91406 7.51091 8.91406H2.55761C2.23936 8.91406 1.98145 9.1721 1.98145 9.49029C1.98145 9.80848 2.23936 10.0665 2.55761 10.0665Z" fill="#DFC184"/>
<path d="M9.49224 10.0665H10.483C10.8012 10.0665 11.0592 9.80848 11.0592 9.49029C11.0592 9.1721 10.8012 8.91406 10.483 8.91406H9.49224C9.17399 8.91406 8.91602 9.1721 8.91602 9.49029C8.91602 9.80848 9.17399 10.0665 9.49224 10.0665Z" fill="#DFC184"/>
<path d="M8.50146 13.0381H10.4828C10.8011 13.0381 11.059 12.7802 11.059 12.462C11.059 12.1437 10.801 11.8857 10.4828 11.8857H8.50146C8.18321 11.8857 7.92529 12.1437 7.92529 12.462C7.92529 12.7802 8.18327 13.0381 8.50146 13.0381Z" fill="#DFC184"/>
</svg>
