<svg width="16" height="11" viewBox="0 0 16 11" fill="none" xmlns="http://www.w3.org/2000/svg">
<path d="M15.2929 8.45954C15.2675 6.58397 14.5114 4.82437 13.1573 3.49534C12.0528 2.41123 10.6563 1.7181 9.14188 1.48579C9.17153 1.38402 9.18775 1.27676 9.18775 1.16579C9.18775 0.522992 8.65494 0 8 0C7.34506 0 6.81225 0.522961 6.81225 1.16579C6.81225 1.27676 6.82847 1.38405 6.85813 1.48579C5.34375 1.7181 3.94722 2.41123 2.84269 3.49537C1.48863 4.82434 0.732531 6.584 0.707094 8.45954H0.5C0.223857 8.45954 0 8.6834 0 8.95954V10.5C0 10.7761 0.223858 11 0.5 11H15.5C15.7761 11 16 10.7761 16 10.5V8.95954C16 8.6834 15.7761 8.45954 15.5 8.45954H15.2929ZM7.99997 0.932925C8.13075 0.932925 8.23719 1.03736 8.23719 1.16576C8.23719 1.29415 8.13078 1.39859 7.99997 1.39859C7.86916 1.39859 7.76275 1.29415 7.76275 1.16576C7.76275 1.0374 7.86919 0.932925 7.99997 0.932925ZM8 2.33158C11.4643 2.33158 14.2883 5.07159 14.3418 8.45954H1.65822C1.71169 5.07162 4.53575 2.33158 8 2.33158ZM15.0495 10.067H0.950531V9.3925H1.18166H1.65694H14.3431H14.9178H15.0495V10.067Z" fill="#DFC184"/>
</svg>
