<svg width="15" height="16" viewBox="0 0 15 16" fill="none" xmlns="http://www.w3.org/2000/svg">
<path d="M0 14.967C0 15.304 0.277533 15.5881 0.621145 15.5881H11.6366C11.9736 15.5881 12.2511 15.304 12.2511 14.967C12.2511 14.63 11.9736 14.3458 11.6366 14.3458H11.1278V10.0705C11.511 10.13 11.7555 10.3943 11.7555 10.804V11.8943C11.7555 12.8855 12.4163 13.5463 13.4075 13.5463C14.3656 13.5463 15 12.8855 15 11.8943V5.06167C15 4.19603 14.848 3.47577 14.5308 2.9141C14.2137 2.37885 13.7511 2.01542 13.1432 1.8304C12.8656 1.74449 12.5683 1.90969 12.4824 2.18062C12.4031 2.46476 12.5551 2.76872 12.8458 2.84802C13.1894 2.94053 13.6718 3.21806 13.8634 4.15639H12.9846C12.6608 4.15639 12.4097 4.40749 12.4097 4.73128V7.35463C12.4097 7.67181 12.6674 7.92291 12.9846 7.92291H13.9427V11.8943C13.9427 12.2445 13.7313 12.4758 13.4075 12.4758C13.0441 12.4758 12.8062 12.2445 12.8062 11.8943V10.7907C12.8062 9.72026 12.185 9.05947 11.1278 9V1.79736C11.1278 0.627753 10.5 0 9.32379 0H2.92731C1.75771 0 1.12996 0.627753 1.12996 1.79736V14.3458H0.621145C0.284141 14.3458 0 14.63 0 14.967ZM2.36564 1.84361C2.36564 1.44714 2.57709 1.23568 2.97357 1.23568H9.27753C9.6674 1.23568 9.87885 1.44714 9.87885 1.84361V14.3458H2.36564V1.84361ZM3.94493 7.72467H8.31277C8.7489 7.72467 9.03965 7.45374 9.03965 7.05727V2.84141C9.03965 2.44493 8.7489 2.17401 8.31277 2.17401H3.94493C3.50881 2.17401 3.21145 2.44493 3.21145 2.84141V7.05727C3.21145 7.45374 3.50881 7.72467 3.94493 7.72467Z" fill="#DFC184"/>
</svg>
