<svg width="25" height="25" viewBox="0 0 25 25" fill="none" xmlns="http://www.w3.org/2000/svg">
<path d="M12.4727 24.9258C19.2695 24.9258 24.8477 19.3359 24.8477 12.5391C24.8477 5.75391 19.2578 0.164062 12.4727 0.164062C5.67578 0.164062 0.0976562 5.75391 0.0976562 12.5391C0.0976562 19.3359 5.6875 24.9258 12.4727 24.9258ZM12.4727 21.8438C7.32812 21.8438 3.19141 17.6953 3.19141 12.5391C3.19141 7.39453 7.31641 3.24609 12.4727 3.24609C17.6172 3.24609 21.7656 7.39453 21.7656 12.5391C21.7773 17.6953 17.6289 21.8438 12.4727 21.8438ZM12.4727 19.8633C16.4805 19.8633 19.7969 16.5469 19.7969 12.5508C19.7969 8.51953 16.5039 5.21484 12.4727 5.21484C8.46484 5.21484 5.14844 8.54297 5.14844 12.5508C5.14844 16.5469 8.48828 19.8633 12.4727 19.8633ZM12.4727 17.2383C9.94141 17.2383 7.78516 15.082 7.78516 12.5508C7.78516 9.99609 9.92969 7.85156 12.4727 7.85156C15.0039 7.85156 17.1602 10.0078 17.1602 12.5508C17.1602 15.0938 15.0156 17.2383 12.4727 17.2383ZM12.4844 15.2695C13.9727 15.2695 15.2148 14.0391 15.2148 12.5391C15.2148 11.0625 13.9609 9.82031 12.4844 9.82031C10.9844 9.82031 9.74219 11.0508 9.74219 12.5391C9.74219 14.0273 10.9961 15.2695 12.4844 15.2695Z" fill="#DFC184"/>
</svg>
