<svg width="27" height="26" viewBox="0 0 27 26" fill="none" xmlns="http://www.w3.org/2000/svg">
<path d="M13.4877 25.6766C20.4289 25.6766 26.1581 19.9474 26.1581 13.0185C26.1581 6.08956 20.4166 0.360352 13.4755 0.360352C6.54656 0.360352 0.82959 6.08956 0.82959 13.0185C0.82959 19.9474 6.5588 25.6766 13.4877 25.6766ZM5.57945 12.0759C5.57945 11.88 5.66514 11.6841 5.83653 11.5372L12.5206 5.94266C13.1082 5.44074 13.8917 5.44074 14.4793 5.94266L17.4786 8.45225V7.36272C17.4786 7.06892 17.6867 6.88529 17.9683 6.88529H18.8252C19.119 6.88529 19.3026 7.06892 19.3026 7.36272V9.99473L21.1512 11.5372C21.3103 11.6841 21.396 11.8677 21.396 12.0881C21.396 12.4676 21.1022 12.7247 20.7227 12.7247C20.5146 12.7247 20.3432 12.6023 20.1596 12.4676L13.8183 7.14237C13.6101 6.97098 13.3898 6.95874 13.1694 7.14237L6.81588 12.4676C6.65674 12.6023 6.47311 12.7247 6.265 12.7247C5.83653 12.7247 5.57945 12.4186 5.57945 12.0759ZM7.6973 17.8785V12.9573L13.0837 8.42777C13.3408 8.21966 13.6346 8.20742 13.8917 8.42777L19.2904 12.9573V17.8785C19.2904 18.7967 18.7028 19.3598 17.7479 19.3598H9.22754C8.27267 19.3598 7.6973 18.7967 7.6973 17.8785ZM11.7983 18.0132H15.1771V13.9978C15.1771 13.6918 15.0057 13.4959 14.6752 13.4959H12.3003C11.9942 13.4959 11.7983 13.6918 11.7983 13.9978V18.0132Z" fill="#DFC184"/>
</svg>
