<svg width="171" height="94" viewBox="0 0 171 94" fill="none" xmlns="http://www.w3.org/2000/svg">
<path d="M114.062 69.597C121.465 69.597 127.595 63.4542 127.595 56.0643C127.595 48.661 121.452 42.5315 114.049 42.5315C106.659 42.5315 100.529 48.661 100.529 56.0643C100.529 63.4542 106.672 69.597 114.062 69.597ZM114.062 67.3416C107.8 67.3416 102.798 62.3265 102.798 56.0643C102.798 49.802 107.787 44.787 114.049 44.787C120.311 44.787 125.339 49.802 125.339 56.0643C125.339 62.3265 120.324 67.3416 114.062 67.3416ZM114.049 63.64C114.407 63.64 114.672 63.3879 114.672 63.0164V62.0877C116.729 61.8887 118.334 60.6946 118.334 58.6912C118.334 56.8868 117.167 55.7989 114.858 55.3876L114.672 55.3478V51.6462C115.628 51.8187 116.291 52.3892 116.556 53.2781C116.689 53.6761 116.941 53.9282 117.366 53.9282C117.817 53.9282 118.148 53.6098 118.148 53.1454C118.148 53.0128 118.109 52.8801 118.082 52.7341C117.737 51.3013 116.371 50.3195 114.672 50.1205V49.205C114.672 48.8335 114.407 48.5814 114.049 48.5814C113.691 48.5814 113.425 48.8335 113.425 49.205V50.1205C111.409 50.346 109.976 51.6064 109.976 53.4108C109.976 55.0957 111.117 56.1041 113.332 56.6215L113.425 56.648V60.5752C112.231 60.4027 111.528 59.7393 111.316 58.8504C111.157 58.3993 110.891 58.1871 110.493 58.1871C110.042 58.1871 109.724 58.5055 109.724 58.9698C109.724 59.1158 109.75 59.2484 109.79 59.3811C110.161 60.9069 111.647 61.8887 113.425 62.0611V63.0164C113.425 63.3879 113.691 63.64 114.049 63.64ZM113.425 55.0161L113.332 54.9896C112.138 54.6447 111.608 54.114 111.608 53.3312C111.608 52.5219 112.298 51.8452 113.425 51.6462V55.0161ZM114.672 56.9665L114.964 57.0328C116.251 57.391 116.689 57.935 116.689 58.7841C116.689 59.7128 116.026 60.416 114.672 60.5752V56.9665Z" fill="#DFC184"/>
<path d="M155.627 36.7317H170.126V27.0654H155.627V36.7317Z" fill="#DFC184"/>
<path d="M155.627 9.66627H170.126V0H155.627V9.66627Z" fill="#DFC184"/>
<path d="M28.9988 48.3313H40.5983V38.665H28.9988V48.3313Z" fill="#DFC184"/>
<path d="M155.627 23.199H170.126V13.5327H155.627V23.199Z" fill="#DFC184"/>
<path d="M120.184 4.41555L123.728 1.93335V17.3994H104.396V13.9625L107.94 10.9075V13.9625H112.29V10.9075L115.834 8.04338V13.9625H120.184V4.41555Z" fill="#DFC184"/>
<path fill-rule="evenodd" clip-rule="evenodd" d="M170.126 42.9732H155.562V56.4971H142.558C141.691 47.3656 134.756 29.1025 113.95 29.1025C93.144 29.1025 87.2489 47.3656 86.9022 56.4971H73.0315V29.1025H58.6406V56.4971C56.9068 61.583 49.0352 71.6855 31.4194 71.4081C13.8037 71.1307 5.00734 52.7983 2.81115 43.6668C-0.772106 55.0523 -6.30877 81.5337 25.1777 92.2141C34.4248 94.8727 61.9349 93.6012 73.0315 71.4081H88.8354C94.7294 80.2299 116.962 94.7293 140.625 71.4081H170.126V42.9732ZM114.062 71.5304C122.604 71.5304 129.528 64.606 129.528 56.0643C129.528 47.5227 122.604 40.5983 114.062 40.5983C105.52 40.5983 98.5958 47.5227 98.5958 56.0643C98.5958 64.606 105.52 71.5304 114.062 71.5304Z" fill="#DFC184"/>
</svg>
