<svg width="15" height="15" viewBox="0 0 15 15" fill="none" xmlns="http://www.w3.org/2000/svg">
<path d="M7.49637 14.9927C11.6071 14.9927 15 11.5998 15 7.49637C15 3.39294 11.5998 0 7.48913 0C3.38569 0 0 3.39294 0 7.49637C0 11.5998 3.39294 14.9927 7.49637 14.9927ZM7.49637 13.4993C4.16868 13.4993 1.50797 10.8241 1.50797 7.49637C1.50797 4.16868 4.16868 1.50073 7.48913 1.50073C10.8168 1.50073 13.492 4.16868 13.4993 7.49637C13.5065 10.8241 10.8241 13.4993 7.49637 13.4993ZM5.74915 9.1856C7.43838 10.8748 9.56984 11.9406 10.8241 10.6791C10.8748 10.6283 10.9183 10.5776 10.9546 10.5268C11.2663 10.1643 11.3678 9.67859 10.9401 9.35959C10.5921 9.1131 10.2368 8.85935 9.67134 8.46786C9.2436 8.16336 8.97535 8.24311 8.64911 8.56211L8.36636 8.84485C8.28661 8.9246 8.14161 8.9101 8.04737 8.8521C7.79362 8.69985 7.37313 8.36636 6.97438 7.96762C6.58289 7.56887 6.22765 7.13388 6.08265 6.89463C6.03915 6.81489 6.0029 6.68439 6.09715 6.58289L6.37989 6.28565C6.69889 5.9449 6.77864 5.6984 6.46689 5.26341L5.58966 4.01643C5.29241 3.59594 4.85742 3.66844 4.36443 4.03093C4.32818 4.05993 4.29918 4.08893 4.27018 4.11068C3.00145 5.37941 4.07443 7.51087 5.74915 9.1856Z" fill="#DFC184"/>
</svg>
