<svg width="25" height="25" viewBox="0 0 25 25" fill="none" xmlns="http://www.w3.org/2000/svg">
<path d="M12.3216 24.6433C19.061 24.6433 24.6433 19.0729 24.6433 12.3216C24.6433 5.58231 19.061 0 12.3097 0C5.57038 0 0 5.58231 0 12.3216C0 19.0729 5.58231 24.6433 12.3216 24.6433ZM12.3216 22.2219C6.83475 22.2219 2.43331 17.8085 2.43331 12.3216C2.43331 6.83475 6.82282 2.43331 12.3097 2.43331C17.7966 2.43331 22.21 6.83475 22.2219 12.3216C22.2219 17.8085 17.8085 22.2219 12.3216 22.2219ZM5.96401 16.6754C5.96401 17.2598 6.35763 17.6535 6.9421 17.6535H17.9278C18.3095 17.6535 18.6196 17.3433 18.6196 16.9616C18.6196 16.568 18.3095 16.2579 17.9278 16.2579H7.39537C7.37151 16.2579 7.35958 16.246 7.35958 16.2221V13.8604L9.60205 11.606C9.66169 11.5344 9.72133 11.5344 9.7929 11.606L11.761 13.6456C12.0592 13.9319 12.3455 14.0631 12.6795 14.0631C13.0135 14.0631 13.3236 13.9319 13.5979 13.6456L15.7927 11.4032L16.5919 12.2262C16.902 12.5244 17.3553 12.3574 17.4745 11.9042L18.3334 8.57624C18.4407 8.18262 18.0709 7.82478 17.6654 7.93213L14.3494 8.76709C13.9081 8.87444 13.7291 9.35156 14.0393 9.64976L14.8384 10.437L12.7749 12.5363C12.7153 12.6198 12.6556 12.6198 12.596 12.5483L10.5921 10.4847C10.3297 10.1985 10.0315 10.0672 9.69748 10.0672C9.35156 10.0672 9.05336 10.1985 8.77902 10.4847L7.35958 11.928V7.35958C7.35958 6.97789 7.04946 6.65583 6.66776 6.65583C6.28606 6.65583 5.96401 6.97789 5.96401 7.35958V16.6754Z" fill="#DFC184"/>
</svg>
