<svg width="98" height="96" viewBox="0 0 98 96" fill="none" xmlns="http://www.w3.org/2000/svg">
<path d="M90.7352 31.7696C89.9311 32.032 89.4922 32.8966 89.7546 33.7005C91.2037 38.1409 91.9387 42.784 91.9387 47.5009C91.9387 59.3707 87.3165 70.5299 78.9231 78.9232C70.5298 87.3166 59.3704 91.9388 47.5005 91.9388C35.6307 91.9388 24.4713 87.3166 16.0779 78.9232C7.68458 70.5299 3.0625 59.3705 3.0625 47.5007C3.0625 35.6308 7.68477 24.4715 16.0781 16.0781C24.4715 7.68476 35.6308 3.0625 47.5007 3.0625C53.7959 3.0625 59.8786 4.35142 65.58 6.89387C71.0889 9.35038 75.9709 12.8481 80.0905 17.2901C80.6655 17.9101 81.6344 17.9468 82.2545 17.3714C82.8747 16.7965 82.9111 15.8277 82.3361 15.2074C77.9337 10.4607 72.716 6.72275 66.8276 4.09685C60.7307 1.37851 54.2284 0 47.5007 0C34.8128 0 22.8843 4.94076 13.9127 13.9127C4.94096 22.8843 0 34.8127 0 47.5007C0 60.1884 4.94096 72.1168 13.9127 81.0884C22.8843 90.0602 34.8128 95.0011 47.5007 95.0011C60.1886 95.0011 72.1171 90.0604 81.0887 81.0884C90.0605 72.1168 95.0014 60.1884 95.0014 47.5007C95.0014 42.4606 94.2157 37.4978 92.6661 32.7501C92.4037 31.9462 91.5391 31.5077 90.7352 31.7696Z" fill="#DFC184"/>
<path d="M96.6541 14.4375C95.7867 13.5689 94.6323 13.0906 93.4041 13.0906C92.1758 13.0906 91.0214 13.5689 90.1544 14.4369L88.7837 15.8076C88.1857 16.4055 88.1857 17.375 88.7837 17.973C89.3817 18.5707 90.3513 18.5709 90.9493 17.9728L92.3205 16.6015C92.6095 16.3121 92.9942 16.1529 93.4039 16.1529C93.8135 16.1529 94.1982 16.3121 94.488 16.6023C94.7778 16.8921 94.9374 17.2768 94.9374 17.6862C94.9374 18.0957 94.7778 18.4804 94.488 18.7702L41.6886 71.5699C41.3996 71.8593 41.0149 72.0186 40.6053 72.0186C40.1956 72.0186 39.8109 71.8593 39.5211 71.5692L18.9008 50.9488C18.611 50.659 18.4513 50.2743 18.4513 49.8649C18.4513 49.4556 18.611 49.0707 18.9013 48.7802C19.1904 48.4908 19.5751 48.3315 19.9847 48.3315C20.3943 48.3315 20.779 48.4908 21.0688 48.7809L39.5225 67.2346C39.8096 67.5217 40.1991 67.683 40.6053 67.683C41.0114 67.683 41.4009 67.5217 41.688 67.2346L86.6396 22.283C87.2377 21.6849 87.2377 20.7156 86.6396 20.1175C86.0416 19.5197 85.0721 19.5197 84.4742 20.1175L40.6053 63.9862L23.2352 46.6159C22.3675 45.7473 21.2133 45.269 19.9851 45.269C18.7568 45.269 17.6025 45.7473 16.7354 46.6154C15.8672 47.4836 15.389 48.6376 15.389 49.8649C15.389 51.0922 15.8672 52.2461 16.7354 53.1145L37.3552 73.7344C38.2226 74.603 39.377 75.0813 40.6053 75.0813C41.8335 75.0813 42.9879 74.603 43.8548 73.7351L96.6535 20.9361C97.5218 20.0679 97.9999 18.9139 97.9999 17.6864C97.9999 16.4589 97.5218 15.305 96.6541 14.4375Z" fill="#DFC184"/>
</svg>
